<mxfile host="app.diagrams.net" modified="2024-02-20T18:44:11.680Z" agent="Mozilla/5.0 (Windows NT 10.0; Win64; x64) AppleWebKit/537.36 (KHTML, like Gecko) Chrome/121.0.0.0 Safari/537.36" etag="-moXEkacSurfkfL021SU" version="23.1.5" type="github">
  <diagram name="PÃ¡gina-1" id="joseDmcuDNcfI511Nmr_">
    <mxGraphModel dx="2100" dy="1060" grid="1" gridSize="10" guides="1" tooltips="1" connect="1" arrows="1" fold="1" page="1" pageScale="1" pageWidth="827" pageHeight="1169" math="0" shadow="0">
      <root>
        <mxCell id="0" />
        <mxCell id="1" parent="0" />
        <mxCell id="zgn5hi2AT3kSdwJxHoBc-1" value="Usuarios" style="rounded=0;whiteSpace=wrap;html=1;" vertex="1" parent="1">
          <mxGeometry x="302" y="130" width="120" height="60" as="geometry" />
        </mxCell>
        <mxCell id="zgn5hi2AT3kSdwJxHoBc-2" value="Canales" style="rounded=0;whiteSpace=wrap;html=1;" vertex="1" parent="1">
          <mxGeometry x="302" y="270" width="120" height="60" as="geometry" />
        </mxCell>
        <mxCell id="zgn5hi2AT3kSdwJxHoBc-3" value="videos" style="rounded=0;whiteSpace=wrap;html=1;" vertex="1" parent="1">
          <mxGeometry x="301" y="410" width="120" height="60" as="geometry" />
        </mxCell>
        <mxCell id="zgn5hi2AT3kSdwJxHoBc-4" value="Anuncios" style="rounded=0;whiteSpace=wrap;html=1;" vertex="1" parent="1">
          <mxGeometry x="301" y="550" width="120" height="60" as="geometry" />
        </mxCell>
        <mxCell id="zgn5hi2AT3kSdwJxHoBc-5" value="Lista de Reproducciones&amp;nbsp;" style="rounded=0;whiteSpace=wrap;html=1;" vertex="1" parent="1">
          <mxGeometry x="312" y="709" width="120" height="60" as="geometry" />
        </mxCell>
        <mxCell id="zgn5hi2AT3kSdwJxHoBc-42" style="edgeStyle=orthogonalEdgeStyle;rounded=0;orthogonalLoop=1;jettySize=auto;html=1;exitX=0.5;exitY=1;exitDx=0;exitDy=0;entryX=0.5;entryY=0;entryDx=0;entryDy=0;" edge="1" parent="1" source="zgn5hi2AT3kSdwJxHoBc-6" target="zgn5hi2AT3kSdwJxHoBc-1">
          <mxGeometry relative="1" as="geometry">
            <Array as="points">
              <mxPoint x="155" y="120" />
              <mxPoint x="362" y="120" />
            </Array>
          </mxGeometry>
        </mxCell>
        <mxCell id="zgn5hi2AT3kSdwJxHoBc-6" value="Correo" style="rounded=1;whiteSpace=wrap;html=1;fillColor=#fad7ac;strokeColor=#b46504;" vertex="1" parent="1">
          <mxGeometry x="120" y="70" width="70" height="30" as="geometry" />
        </mxCell>
        <mxCell id="zgn5hi2AT3kSdwJxHoBc-43" style="edgeStyle=orthogonalEdgeStyle;rounded=0;orthogonalLoop=1;jettySize=auto;html=1;exitX=0.5;exitY=1;exitDx=0;exitDy=0;" edge="1" parent="1" source="zgn5hi2AT3kSdwJxHoBc-7">
          <mxGeometry relative="1" as="geometry">
            <mxPoint x="360" y="130" as="targetPoint" />
            <Array as="points">
              <mxPoint x="234" y="120" />
              <mxPoint x="361" y="120" />
              <mxPoint x="361" y="130" />
            </Array>
          </mxGeometry>
        </mxCell>
        <mxCell id="zgn5hi2AT3kSdwJxHoBc-7" value="Nombre de Usuario" style="rounded=1;whiteSpace=wrap;html=1;fillColor=#fad7ac;strokeColor=#b46504;" vertex="1" parent="1">
          <mxGeometry x="199" y="70" width="70" height="30" as="geometry" />
        </mxCell>
        <mxCell id="zgn5hi2AT3kSdwJxHoBc-44" style="edgeStyle=orthogonalEdgeStyle;rounded=0;orthogonalLoop=1;jettySize=auto;html=1;exitX=0.5;exitY=1;exitDx=0;exitDy=0;" edge="1" parent="1" source="zgn5hi2AT3kSdwJxHoBc-8">
          <mxGeometry relative="1" as="geometry">
            <mxPoint x="360" y="130" as="targetPoint" />
          </mxGeometry>
        </mxCell>
        <mxCell id="zgn5hi2AT3kSdwJxHoBc-8" value="Canal" style="rounded=1;whiteSpace=wrap;html=1;fillColor=#fad7ac;strokeColor=#b46504;" vertex="1" parent="1">
          <mxGeometry x="280" y="70" width="70" height="30" as="geometry" />
        </mxCell>
        <mxCell id="zgn5hi2AT3kSdwJxHoBc-45" style="edgeStyle=orthogonalEdgeStyle;rounded=0;orthogonalLoop=1;jettySize=auto;html=1;exitX=0.5;exitY=1;exitDx=0;exitDy=0;" edge="1" parent="1" source="zgn5hi2AT3kSdwJxHoBc-9">
          <mxGeometry relative="1" as="geometry">
            <mxPoint x="360" y="130" as="targetPoint" />
          </mxGeometry>
        </mxCell>
        <mxCell id="zgn5hi2AT3kSdwJxHoBc-9" value="Videos" style="rounded=1;whiteSpace=wrap;html=1;fillColor=#fad7ac;strokeColor=#b46504;" vertex="1" parent="1">
          <mxGeometry x="360" y="70" width="70" height="30" as="geometry" />
        </mxCell>
        <mxCell id="zgn5hi2AT3kSdwJxHoBc-46" style="edgeStyle=orthogonalEdgeStyle;rounded=0;orthogonalLoop=1;jettySize=auto;html=1;exitX=0.5;exitY=1;exitDx=0;exitDy=0;" edge="1" parent="1" source="zgn5hi2AT3kSdwJxHoBc-10">
          <mxGeometry relative="1" as="geometry">
            <mxPoint x="360" y="140" as="targetPoint" />
          </mxGeometry>
        </mxCell>
        <mxCell id="zgn5hi2AT3kSdwJxHoBc-10" value="edad" style="rounded=1;whiteSpace=wrap;html=1;fillColor=#fad7ac;strokeColor=#b46504;" vertex="1" parent="1">
          <mxGeometry x="440" y="70" width="70" height="30" as="geometry" />
        </mxCell>
        <mxCell id="zgn5hi2AT3kSdwJxHoBc-47" style="edgeStyle=orthogonalEdgeStyle;rounded=0;orthogonalLoop=1;jettySize=auto;html=1;exitX=0.5;exitY=1;exitDx=0;exitDy=0;" edge="1" parent="1" source="zgn5hi2AT3kSdwJxHoBc-11">
          <mxGeometry relative="1" as="geometry">
            <mxPoint x="360" y="140" as="targetPoint" />
          </mxGeometry>
        </mxCell>
        <mxCell id="zgn5hi2AT3kSdwJxHoBc-11" value="Preferencias" style="rounded=1;whiteSpace=wrap;html=1;fillColor=#fad7ac;strokeColor=#b46504;" vertex="1" parent="1">
          <mxGeometry x="520" y="70" width="70" height="30" as="geometry" />
        </mxCell>
        <mxCell id="zgn5hi2AT3kSdwJxHoBc-12" value="Videos" style="rounded=1;whiteSpace=wrap;html=1;fillColor=#fad7ac;strokeColor=#b46504;" vertex="1" parent="1">
          <mxGeometry x="53" y="210" width="70" height="30" as="geometry" />
        </mxCell>
        <mxCell id="zgn5hi2AT3kSdwJxHoBc-13" value="Usuario" style="rounded=1;whiteSpace=wrap;html=1;fillColor=#fad7ac;strokeColor=#b46504;" vertex="1" parent="1">
          <mxGeometry x="132" y="210" width="70" height="30" as="geometry" />
        </mxCell>
        <mxCell id="zgn5hi2AT3kSdwJxHoBc-14" value="Tipo de contenido&amp;nbsp;" style="rounded=1;whiteSpace=wrap;html=1;fillColor=#fad7ac;strokeColor=#b46504;" vertex="1" parent="1">
          <mxGeometry x="213" y="210" width="70" height="30" as="geometry" />
        </mxCell>
        <mxCell id="zgn5hi2AT3kSdwJxHoBc-15" value="suscriptores" style="rounded=1;whiteSpace=wrap;html=1;fillColor=#fad7ac;strokeColor=#b46504;" vertex="1" parent="1">
          <mxGeometry x="303" y="210" width="70" height="30" as="geometry" />
        </mxCell>
        <mxCell id="zgn5hi2AT3kSdwJxHoBc-16" value="Numero de vistas&amp;nbsp;" style="rounded=1;whiteSpace=wrap;html=1;fillColor=#fad7ac;strokeColor=#b46504;" vertex="1" parent="1">
          <mxGeometry x="393" y="210" width="70" height="30" as="geometry" />
        </mxCell>
        <mxCell id="zgn5hi2AT3kSdwJxHoBc-17" value="Acerca de&amp;nbsp;" style="rounded=1;whiteSpace=wrap;html=1;fillColor=#fad7ac;strokeColor=#b46504;" vertex="1" parent="1">
          <mxGeometry x="483" y="210" width="70" height="30" as="geometry" />
        </mxCell>
        <mxCell id="zgn5hi2AT3kSdwJxHoBc-18" value="Fecaha creacion" style="rounded=1;whiteSpace=wrap;html=1;fillColor=#fad7ac;strokeColor=#b46504;" vertex="1" parent="1">
          <mxGeometry x="583" y="210" width="70" height="30" as="geometry" />
        </mxCell>
        <mxCell id="zgn5hi2AT3kSdwJxHoBc-19" value="Titulo" style="rounded=1;whiteSpace=wrap;html=1;fillColor=#fad7ac;strokeColor=#b46504;" vertex="1" parent="1">
          <mxGeometry x="23" y="360" width="70" height="30" as="geometry" />
        </mxCell>
        <mxCell id="zgn5hi2AT3kSdwJxHoBc-20" value="Descripcion" style="rounded=1;whiteSpace=wrap;html=1;fillColor=#fad7ac;strokeColor=#b46504;" vertex="1" parent="1">
          <mxGeometry x="102" y="360" width="70" height="30" as="geometry" />
        </mxCell>
        <mxCell id="zgn5hi2AT3kSdwJxHoBc-21" value="Comentarios" style="rounded=1;whiteSpace=wrap;html=1;fillColor=#fad7ac;strokeColor=#b46504;" vertex="1" parent="1">
          <mxGeometry x="183" y="360" width="70" height="30" as="geometry" />
        </mxCell>
        <mxCell id="zgn5hi2AT3kSdwJxHoBc-22" value="Duracion" style="rounded=1;whiteSpace=wrap;html=1;fillColor=#fad7ac;strokeColor=#b46504;" vertex="1" parent="1">
          <mxGeometry x="263" y="360" width="70" height="30" as="geometry" />
        </mxCell>
        <mxCell id="zgn5hi2AT3kSdwJxHoBc-23" value="Calidad" style="rounded=1;whiteSpace=wrap;html=1;fillColor=#fad7ac;strokeColor=#b46504;" vertex="1" parent="1">
          <mxGeometry x="353" y="360" width="70" height="30" as="geometry" />
        </mxCell>
        <mxCell id="zgn5hi2AT3kSdwJxHoBc-24" value="Tipo de video" style="rounded=1;whiteSpace=wrap;html=1;fillColor=#fad7ac;strokeColor=#b46504;" vertex="1" parent="1">
          <mxGeometry x="443" y="360" width="70" height="30" as="geometry" />
        </mxCell>
        <mxCell id="zgn5hi2AT3kSdwJxHoBc-25" value="Usuario" style="rounded=1;whiteSpace=wrap;html=1;fillColor=#fad7ac;strokeColor=#b46504;" vertex="1" parent="1">
          <mxGeometry x="533" y="360" width="70" height="30" as="geometry" />
        </mxCell>
        <mxCell id="zgn5hi2AT3kSdwJxHoBc-26" value="Canal" style="rounded=1;whiteSpace=wrap;html=1;fillColor=#fad7ac;strokeColor=#b46504;" vertex="1" parent="1">
          <mxGeometry x="623" y="360" width="70" height="30" as="geometry" />
        </mxCell>
        <mxCell id="zgn5hi2AT3kSdwJxHoBc-27" value="Publico Objetivo&amp;nbsp;" style="rounded=1;whiteSpace=wrap;html=1;fillColor=#fad7ac;strokeColor=#b46504;" vertex="1" parent="1">
          <mxGeometry x="182" y="500" width="70" height="30" as="geometry" />
        </mxCell>
        <mxCell id="zgn5hi2AT3kSdwJxHoBc-28" value="Duracion" style="rounded=1;whiteSpace=wrap;html=1;fillColor=#fad7ac;strokeColor=#b46504;" vertex="1" parent="1">
          <mxGeometry x="272" y="500" width="70" height="30" as="geometry" />
        </mxCell>
        <mxCell id="zgn5hi2AT3kSdwJxHoBc-29" value="Region" style="rounded=1;whiteSpace=wrap;html=1;fillColor=#fad7ac;strokeColor=#b46504;" vertex="1" parent="1">
          <mxGeometry x="362" y="500" width="70" height="30" as="geometry" />
        </mxCell>
        <mxCell id="zgn5hi2AT3kSdwJxHoBc-30" value="Tipo&lt;br&gt;Contenido" style="rounded=1;whiteSpace=wrap;html=1;fillColor=#fad7ac;strokeColor=#b46504;" vertex="1" parent="1">
          <mxGeometry x="703" y="360" width="70" height="30" as="geometry" />
        </mxCell>
        <mxCell id="zgn5hi2AT3kSdwJxHoBc-31" value="Marca" style="rounded=1;whiteSpace=wrap;html=1;fillColor=#fad7ac;strokeColor=#b46504;" vertex="1" parent="1">
          <mxGeometry x="452" y="500" width="70" height="30" as="geometry" />
        </mxCell>
        <mxCell id="zgn5hi2AT3kSdwJxHoBc-33" value="Videos" style="rounded=1;whiteSpace=wrap;html=1;fillColor=#fad7ac;strokeColor=#b46504;" vertex="1" parent="1">
          <mxGeometry x="177" y="650" width="70" height="30" as="geometry" />
        </mxCell>
        <mxCell id="zgn5hi2AT3kSdwJxHoBc-34" value="Nombre" style="rounded=1;whiteSpace=wrap;html=1;fillColor=#fad7ac;strokeColor=#b46504;" vertex="1" parent="1">
          <mxGeometry x="257" y="650" width="70" height="30" as="geometry" />
        </mxCell>
        <mxCell id="zgn5hi2AT3kSdwJxHoBc-35" value="Canal" style="rounded=1;whiteSpace=wrap;html=1;fillColor=#fad7ac;strokeColor=#b46504;" vertex="1" parent="1">
          <mxGeometry x="337" y="650" width="70" height="30" as="geometry" />
        </mxCell>
        <mxCell id="zgn5hi2AT3kSdwJxHoBc-36" value="Listas de reproduccion" style="rounded=1;whiteSpace=wrap;html=1;fillColor=#fad7ac;strokeColor=#b46504;" vertex="1" parent="1">
          <mxGeometry x="673" y="210" width="70" height="30" as="geometry" />
        </mxCell>
        <mxCell id="zgn5hi2AT3kSdwJxHoBc-38" value="Usuario" style="rounded=1;whiteSpace=wrap;html=1;fillColor=#fad7ac;strokeColor=#b46504;" vertex="1" parent="1">
          <mxGeometry x="417" y="650" width="70" height="30" as="geometry" />
        </mxCell>
        <mxCell id="zgn5hi2AT3kSdwJxHoBc-39" value="Tipo de Contenido" style="rounded=1;whiteSpace=wrap;html=1;fillColor=#fad7ac;strokeColor=#b46504;" vertex="1" parent="1">
          <mxGeometry x="497" y="650" width="70" height="30" as="geometry" />
        </mxCell>
        <mxCell id="zgn5hi2AT3kSdwJxHoBc-48" value="Comentarios" style="rounded=0;whiteSpace=wrap;html=1;" vertex="1" parent="1">
          <mxGeometry x="312" y="830" width="120" height="60" as="geometry" />
        </mxCell>
        <mxCell id="zgn5hi2AT3kSdwJxHoBc-49" value="Video" style="rounded=1;whiteSpace=wrap;html=1;fillColor=#fad7ac;strokeColor=#b46504;" vertex="1" parent="1">
          <mxGeometry x="196" y="790" width="70" height="30" as="geometry" />
        </mxCell>
        <mxCell id="zgn5hi2AT3kSdwJxHoBc-50" value="Nombre de usuario" style="rounded=1;whiteSpace=wrap;html=1;fillColor=#fad7ac;strokeColor=#b46504;" vertex="1" parent="1">
          <mxGeometry x="289" y="790" width="70" height="30" as="geometry" />
        </mxCell>
        <mxCell id="zgn5hi2AT3kSdwJxHoBc-51" value="respuestas" style="rounded=1;whiteSpace=wrap;html=1;fillColor=#fad7ac;strokeColor=#b46504;" vertex="1" parent="1">
          <mxGeometry x="377" y="790" width="70" height="30" as="geometry" />
        </mxCell>
        <mxCell id="zgn5hi2AT3kSdwJxHoBc-52" value="Estado" style="rounded=1;whiteSpace=wrap;html=1;fillColor=#fad7ac;strokeColor=#b46504;" vertex="1" parent="1">
          <mxGeometry x="469" y="790" width="70" height="30" as="geometry" />
        </mxCell>
      </root>
    </mxGraphModel>
  </diagram>
</mxfile>
